<svg width="37" height="28" viewBox="0 0 37 28" fill="none" xmlns="http://www.w3.org/2000/svg">
<path d="M36.75 28H21V0H36.75V28Z" stroke="#E5E7EB"/>
<path d="M15.75 28H0V8H15.75V28Z" stroke="#E5E7EB"/>
<g clip-path="url(#clip0_194_10100)">
<path d="M7.8753 8.25C7.25304 8.25 6.7503 8.75273 6.7503 9.375V10.05C4.1839 10.5703 2.2503 12.8414 2.2503 15.5625V16.2234C2.2503 17.8758 1.6421 19.4719 0.545226 20.7094L0.285069 21.0012C-0.0102433 21.3316 -0.0805558 21.8063 0.0987411 22.2105C0.278038 22.6148 0.682335 22.875 1.1253 22.875H14.6253C15.0683 22.875 15.4691 22.6148 15.6519 22.2105C15.8347 21.8063 15.7609 21.3316 15.4655 21.0012L15.2054 20.7094C14.1085 19.4719 13.5003 17.8793 13.5003 16.2234V15.5625C13.5003 12.8414 11.5667 10.5703 9.0003 10.05V9.375C9.0003 8.75273 8.49757 8.25 7.8753 8.25ZM9.46788 25.5926C9.88976 25.1707 10.1253 24.5977 10.1253 24H7.8753H5.6253C5.6253 24.5977 5.86085 25.1707 6.28273 25.5926C6.7046 26.0145 7.27765 26.25 7.8753 26.25C8.47296 26.25 9.04601 26.0145 9.46788 25.5926Z" fill="#4B5563"/>
</g>
<path d="M15.75 0C17.9591 0 19.75 1.79086 19.75 4C19.75 6.20914 17.9591 8 15.75 8C13.5409 8 11.75 6.20914 11.75 4C11.75 1.79086 13.5409 0 15.75 0Z" fill="#EF4444"/>
<path d="M15.75 0C17.9591 0 19.75 1.79086 19.75 4C19.75 6.20914 17.9591 8 15.75 8C13.5409 8 11.75 6.20914 11.75 4C11.75 1.79086 13.5409 0 15.75 0Z" stroke="#E5E7EB"/>
<defs>
<clipPath id="clip0_194_10100">
<path d="M0 8.25H15.75V26.25H0V8.25Z" fill="white"/>
</clipPath>
</defs>
</svg>
