<svg width="34" height="42" viewBox="0 0 34 42" fill="none" xmlns="http://www.w3.org/2000/svg">
<path d="M6 0.5H28C31.0376 0.5 33.5 2.96243 33.5 6V36C33.5 39.0376 31.0376 41.5 28 41.5H6C2.96243 41.5 0.5 39.0376 0.5 36V6C0.5 2.96243 2.96243 0.5 6 0.5Z" stroke="#D1D5DB"/>
<path d="M25 30H9V11H25V30Z" stroke="#E5E7EB"/>
<path d="M25 28H9V12H25V28Z" stroke="#E5E7EB"/>
<path d="M11 15.5C10.725 15.5 10.5 15.725 10.5 16V16.6906L15.8906 21.1156C16.5375 21.6469 17.4656 21.6469 18.1125 21.1156L23.5 16.6906V16C23.5 15.725 23.275 15.5 23 15.5H11ZM10.5 18.6312V24C10.5 24.275 10.725 24.5 11 24.5H23C23.275 24.5 23.5 24.275 23.5 24V18.6312L19.0625 22.275C17.8625 23.2594 16.1344 23.2594 14.9375 22.275L10.5 18.6312ZM9 16C9 14.8969 9.89688 14 11 14H23C24.1031 14 25 14.8969 25 16V24C25 25.1031 24.1031 26 23 26H11C9.89688 26 9 25.1031 9 24V16Z" fill="#4B5563"/>
</svg>
