<svg width="34" height="42" viewBox="0 0 34 42" fill="none" xmlns="http://www.w3.org/2000/svg">
<path d="M6 0.5H28C31.0376 0.5 33.5 2.96243 33.5 6V36C33.5 39.0376 31.0376 41.5 28 41.5H6C2.96243 41.5 0.5 39.0376 0.5 36V6C0.5 2.96243 2.96243 0.5 6 0.5Z" stroke="#D1D5DB"/>
<path d="M25 30H9V11H25V30Z" stroke="#E5E7EB"/>
<path fill-rule="evenodd" clip-rule="evenodd" d="M20.5428 27.9457C19.1835 27.6052 16.4007 26.645 13.8778 24.1222C11.355 21.5993 10.3949 18.8165 10.0543 17.4572C9.85855 16.676 10.211 15.9222 10.8086 15.4953L12.3753 14.3762C13.292 13.7214 14.5673 13.9436 15.2085 14.8698L16.1948 16.2946C16.6135 16.8993 16.4691 17.7282 15.8705 18.1558L15.0841 18.7175C15.2031 19.1728 15.5733 20.1078 16.7328 21.2673C17.8922 22.4267 18.8272 22.7969 19.2825 22.9159L19.8442 22.1294C20.2718 21.5309 21.1007 21.3864 21.7054 21.8051L23.1302 22.7915C24.0564 23.4328 24.2786 24.7079 23.6238 25.6246L22.5047 27.1914C22.0778 27.789 21.324 28.1415 20.5428 27.9457ZM14.8295 23.1705C17.1237 25.4648 19.6555 26.336 20.8699 26.6403C21.0474 26.6847 21.262 26.6157 21.4096 26.4091L22.5287 24.8424C22.7469 24.5369 22.6729 24.1118 22.3641 23.898L20.9394 22.9117L20.3365 23.7557C20.0902 24.1006 19.6346 24.3711 19.104 24.2567C18.4419 24.1138 17.2179 23.6556 15.7811 22.2189C14.3444 20.7822 13.8862 19.5581 13.7433 18.896C13.6289 18.3655 13.8994 17.9098 14.2443 17.6635L15.0883 17.0606L14.102 15.6359C13.8882 15.3271 13.4631 15.2531 13.1576 15.4713L11.5909 16.5904C11.3843 16.738 11.3153 16.9526 11.3598 17.1301C11.664 18.3445 12.5353 20.8763 14.8295 23.1705Z" fill="#4B5563"/>
</svg>
