<svg width="16" height="24" viewBox="0 0 16 24" fill="none" xmlns="http://www.w3.org/2000/svg">
<path d="M16 24H0V0H16V24Z" stroke="#E5E7EB"/>
<path d="M16 21H0V2H16V21Z" stroke="#E5E7EB"/>
<g clip-path="url(#clip0_194_9795)">
<path d="M0.121712 4.71563C0.327962 4.27813 0.765462 4 1.24984 4H14.7498C15.2342 4 15.6717 4.27813 15.878 4.71563C16.0842 5.15313 16.0217 5.66875 15.7155 6.04375L9.99984 13.0281V17C9.99984 17.3781 9.78734 17.725 9.44671 17.8938C9.10609 18.0625 8.70296 18.0281 8.39984 17.8L6.39984 16.3C6.14671 16.1125 5.99984 15.8156 5.99984 15.5V13.0281L0.281087 6.04063C-0.0220383 5.66875 -0.0876633 5.15 0.121712 4.71563Z" fill="#6B7280"/>
</g>
<defs>
<clipPath id="clip0_194_9795">
<path d="M0 3H16V19H0V3Z" fill="white"/>
</clipPath>
</defs>
</svg>
