<svg width="16" height="24" viewBox="0 0 16 24" fill="none" xmlns="http://www.w3.org/2000/svg">
<path d="M16 24H0V0H16V24Z" stroke="#E5E7EB"/>
<path d="M16 21H0V2H16V21Z" stroke="#E5E7EB"/>
<g clip-path="url(#clip0_194_9800)">
<path d="M9 4C9 3.44687 8.55313 3 8 3C7.44688 3 7 3.44687 7 4V11.5844L4.70625 9.29063C4.31563 8.9 3.68125 8.9 3.29063 9.29063C2.9 9.68125 2.9 10.3156 3.29063 10.7063L7.29063 14.7063C7.68125 15.0969 8.31563 15.0969 8.70625 14.7063L12.7063 10.7063C13.0969 10.3156 13.0969 9.68125 12.7063 9.29063C12.3156 8.9 11.6812 8.9 11.2906 9.29063L9 11.5844V4ZM2 14C0.896875 14 0 14.8969 0 16V17C0 18.1031 0.896875 19 2 19H14C15.1031 19 16 18.1031 16 17V16C16 14.8969 15.1031 14 14 14H10.8281L9.4125 15.4156C8.63125 16.1969 7.36562 16.1969 6.58437 15.4156L5.17188 14H2ZM13.5 15.75C13.6989 15.75 13.8897 15.829 14.0303 15.9697C14.171 16.1103 14.25 16.3011 14.25 16.5C14.25 16.6989 14.171 16.8897 14.0303 17.0303C13.8897 17.171 13.6989 17.25 13.5 17.25C13.3011 17.25 13.1103 17.171 12.9697 17.0303C12.829 16.8897 12.75 16.6989 12.75 16.5C12.75 16.3011 12.829 16.1103 12.9697 15.9697C13.1103 15.829 13.3011 15.75 13.5 15.75Z" fill="#6B7280"/>
</g>
<defs>
<clipPath id="clip0_194_9800">
<path d="M0 3H16V19H0V3Z" fill="white"/>
</clipPath>
</defs>
</svg>
