<svg width="284" height="28" viewBox="0 0 284 28" fill="none" xmlns="http://www.w3.org/2000/svg">
<path d="M284 28H0V0H284V28Z" stroke="#E5E7EB"/>
<g clip-path="url(#clip0_194_10198)">
<path d="M20 23.5H0V3.5H20V23.5Z" stroke="#E5E7EB"/>
<path d="M17.9441 9.42638C17.9568 9.60403 17.9568 9.78173 17.9568 9.95938C17.9568 15.3781 13.8325 21.6218 6.29441 21.6218C3.97207 21.6218 1.81473 20.9492 0 19.7817C0.329961 19.8198 0.647187 19.8325 0.989844 19.8325C2.90605 19.8325 4.67004 19.1853 6.07867 18.0812C4.27664 18.0431 2.76648 16.8629 2.24617 15.2386C2.5 15.2766 2.75379 15.302 3.02031 15.302C3.38832 15.302 3.75637 15.2512 4.09898 15.1624C2.22082 14.7817 0.812148 13.132 0.812148 11.1396V11.0888C1.35781 11.3934 1.99238 11.5838 2.66492 11.6091C1.56086 10.8731 0.837539 9.61673 0.837539 8.1954C0.837539 7.43399 1.04055 6.73603 1.3959 6.12688C3.41367 8.61419 6.44668 10.2385 9.84766 10.4162C9.78422 10.1117 9.74613 9.79442 9.74613 9.47716C9.74613 7.21825 11.5736 5.37817 13.8451 5.37817C15.0253 5.37817 16.0913 5.8731 16.84 6.67259C17.7664 6.49493 18.6547 6.15228 19.4416 5.68274C19.137 6.63454 18.4898 7.43403 17.6395 7.94161C18.4644 7.85282 19.2639 7.62435 19.9999 7.30712C19.4416 8.11927 18.7436 8.84259 17.9441 9.42638Z" fill="#9CA3AF"/>
</g>
<g clip-path="url(#clip1_194_10198)">
<g clip-path="url(#clip2_194_10198)">
<path d="M52.25 4.75H37.2461C36.5586 4.75 36 5.31641 36 6.01172V20.9883C36 21.6836 36.5586 22.25 37.2461 22.25H52.25C52.9375 22.25 53.5 21.6836 53.5 20.9883V6.01172C53.5 5.31641 52.9375 4.75 52.25 4.75ZM41.2891 19.75H38.6953V11.3984H41.293V19.75H41.2891ZM39.9922 10.2578C39.1602 10.2578 38.4883 9.58203 38.4883 8.75391C38.4883 7.92578 39.1602 7.25 39.9922 7.25C40.8203 7.25 41.4961 7.92578 41.4961 8.75391C41.4961 9.58594 40.8242 10.2578 39.9922 10.2578ZM51.0117 19.75H48.418V15.6875C48.418 14.7188 48.3984 13.4727 47.0703 13.4727C45.7188 13.4727 45.5117 14.5273 45.5117 15.6172V19.75H42.918V11.3984H45.4062V12.5391H45.4414C45.7891 11.8828 46.6367 11.1914 47.8984 11.1914C50.5234 11.1914 51.0117 12.9219 51.0117 15.1719V19.75Z" fill="#9CA3AF"/>
</g>
</g>
<g clip-path="url(#clip3_194_10198)">
<g clip-path="url(#clip4_194_10198)">
<path d="M75.9805 19.0234C75.9805 19.1016 75.8906 19.1641 75.7773 19.1641C75.6484 19.1758 75.5586 19.1133 75.5586 19.0234C75.5586 18.9453 75.6484 18.8828 75.7617 18.8828C75.8789 18.8711 75.9805 18.9336 75.9805 19.0234ZM74.7656 18.8477C74.7383 18.9258 74.8164 19.0156 74.9336 19.0391C75.0352 19.0781 75.1523 19.0391 75.1758 18.9609C75.1992 18.8828 75.125 18.793 75.0078 18.7578C74.9062 18.7305 74.793 18.7695 74.7656 18.8477ZM76.4922 18.7812C76.3789 18.8086 76.3008 18.8828 76.3125 18.9727C76.3242 19.0508 76.4258 19.1016 76.543 19.0742C76.6562 19.0469 76.7344 18.9727 76.7227 18.8945C76.7109 18.8203 76.6055 18.7695 76.4922 18.7812ZM79.0625 3.8125C73.6445 3.8125 69.5 7.92578 69.5 13.3438C69.5 17.6758 72.2266 21.3828 76.1211 22.6875C76.6211 22.7773 76.7969 22.4688 76.7969 22.2148C76.7969 21.9727 76.7852 20.6367 76.7852 19.8164C76.7852 19.8164 74.0508 20.4023 73.4766 18.6523C73.4766 18.6523 73.0312 17.5156 72.3906 17.2227C72.3906 17.2227 71.4961 16.6094 72.4531 16.6211C72.4531 16.6211 73.4258 16.6992 73.9609 17.6289C74.8164 19.1367 76.25 18.7031 76.8086 18.4453C76.8984 17.8203 77.1523 17.3867 77.4336 17.1289C75.25 16.8867 73.0469 16.5703 73.0469 12.8125C73.0469 11.7383 73.3438 11.1992 73.9688 10.5117C73.8672 10.2578 73.5352 9.21094 74.0703 7.85938C74.8867 7.60547 76.7656 8.91406 76.7656 8.91406C77.5469 8.69531 78.3867 8.58203 79.2188 8.58203C80.0508 8.58203 80.8906 8.69531 81.6719 8.91406C81.6719 8.91406 83.5508 7.60156 84.3672 7.85938C84.9023 9.21484 84.5703 10.2578 84.4688 10.5117C85.0938 11.2031 85.4766 11.7422 85.4766 12.8125C85.4766 16.582 83.1758 16.8828 80.9922 17.1289C81.3516 17.4375 81.6562 18.0234 81.6562 18.9414C81.6562 20.2578 81.6445 21.8867 81.6445 22.207C81.6445 22.4609 81.8242 22.7695 82.3203 22.6797C86.2266 21.3828 88.875 17.6758 88.875 13.3438C88.875 7.92578 84.4805 3.8125 79.0625 3.8125ZM73.2969 17.2852C73.2461 17.3242 73.2578 17.4141 73.3242 17.4883C73.3867 17.5508 73.4766 17.5781 73.5273 17.5273C73.5781 17.4883 73.5664 17.3984 73.5 17.3242C73.4375 17.2617 73.3477 17.2344 73.2969 17.2852ZM72.875 16.9688C72.8477 17.0195 72.8867 17.082 72.9648 17.1211C73.0273 17.1602 73.1055 17.1484 73.1328 17.0938C73.1602 17.043 73.1211 16.9805 73.043 16.9414C72.9648 16.918 72.9023 16.9297 72.875 16.9688ZM74.1406 18.3594C74.0781 18.4102 74.1016 18.5273 74.1914 18.6016C74.2812 18.6914 74.3945 18.7031 74.4453 18.6406C74.4961 18.5898 74.4727 18.4727 74.3945 18.3984C74.3086 18.3086 74.1914 18.2969 74.1406 18.3594ZM73.6953 17.7852C73.6328 17.8242 73.6328 17.9258 73.6953 18.0156C73.7578 18.1055 73.8633 18.1445 73.9141 18.1055C73.9766 18.0547 73.9766 17.9531 73.9141 17.8633C73.8594 17.7734 73.7578 17.7344 73.6953 17.7852Z" fill="#9CA3AF"/>
</g>
</g>
<defs>
<clipPath id="clip0_194_10198">
<rect width="20" height="20" fill="white" transform="translate(0 3.5)"/>
</clipPath>
<clipPath id="clip1_194_10198">
<rect width="17.5" height="20" fill="white" transform="translate(36 3.5)"/>
</clipPath>
<clipPath id="clip2_194_10198">
<path d="M36 3.5H53.5V23.5H36V3.5Z" fill="white"/>
</clipPath>
<clipPath id="clip3_194_10198">
<rect width="19.375" height="20" fill="white" transform="translate(69.5 3.5)"/>
</clipPath>
<clipPath id="clip4_194_10198">
<path d="M69.5 3.5H88.875V23.5H69.5V3.5Z" fill="white"/>
</clipPath>
</defs>
</svg>
