<svg width="90" height="24" viewBox="0 0 90 24" fill="none" xmlns="http://www.w3.org/2000/svg">
<path d="M90 24H0V0H90V24Z" stroke="#E5E7EB"/>
<path d="M18 24H0V0H18V24Z" stroke="#E5E7EB"/>
<g clip-path="url(#clip0_194_9925)">
<path d="M9.90352 3.5625C9.7379 3.21875 9.3879 3 9.00352 3C8.61915 3 8.27227 3.21875 8.10352 3.5625L6.09415 7.69688L1.60665 8.35938C1.23165 8.41563 0.919147 8.67812 0.803522 9.0375C0.687897 9.39687 0.781647 9.79375 1.0504 10.0594L4.30665 13.2812L3.5379 17.8344C3.4754 18.2094 3.63165 18.5906 3.94102 18.8125C4.2504 19.0344 4.65977 19.0625 4.99727 18.8844L9.00665 16.7437L13.016 18.8844C13.3535 19.0625 13.7629 19.0375 14.0723 18.8125C14.3816 18.5875 14.5379 18.2094 14.4754 17.8344L13.7035 13.2812L16.9598 10.0594C17.2285 9.79375 17.3254 9.39687 17.2066 9.0375C17.0879 8.67812 16.7785 8.41563 16.4035 8.35938L11.9129 7.69688L9.90352 3.5625Z" fill="#FACC15"/>
</g>
<path d="M36 24H18V0H36V24Z" stroke="#E5E7EB"/>
<g clip-path="url(#clip1_194_9925)">
<path d="M27.9035 3.5625C27.7379 3.21875 27.3879 3 27.0035 3C26.6191 3 26.2723 3.21875 26.1035 3.5625L24.0941 7.69688L19.6066 8.35938C19.2316 8.41563 18.9191 8.67812 18.8035 9.0375C18.6879 9.39687 18.7816 9.79375 19.0504 10.0594L22.3066 13.2812L21.5379 17.8344C21.4754 18.2094 21.6316 18.5906 21.941 18.8125C22.2504 19.0344 22.6598 19.0625 22.9973 18.8844L27.0066 16.7437L31.016 18.8844C31.3535 19.0625 31.7629 19.0375 32.0723 18.8125C32.3816 18.5875 32.5379 18.2094 32.4754 17.8344L31.7035 13.2812L34.9598 10.0594C35.2285 9.79375 35.3254 9.39687 35.2066 9.0375C35.0879 8.67812 34.7785 8.41563 34.4035 8.35938L29.9129 7.69688L27.9035 3.5625Z" fill="#FACC15"/>
</g>
<path d="M54 24H36V0H54V24Z" stroke="#E5E7EB"/>
<g clip-path="url(#clip2_194_9925)">
<path d="M45.9035 3.5625C45.7379 3.21875 45.3879 3 45.0035 3C44.6191 3 44.2723 3.21875 44.1035 3.5625L42.0941 7.69688L37.6066 8.35938C37.2316 8.41563 36.9191 8.67812 36.8035 9.0375C36.6879 9.39687 36.7816 9.79375 37.0504 10.0594L40.3066 13.2812L39.5379 17.8344C39.4754 18.2094 39.6316 18.5906 39.941 18.8125C40.2504 19.0344 40.6598 19.0625 40.9973 18.8844L45.0066 16.7437L49.016 18.8844C49.3535 19.0625 49.7629 19.0375 50.0723 18.8125C50.3816 18.5875 50.5379 18.2094 50.4754 17.8344L49.7035 13.2812L52.9598 10.0594C53.2285 9.79375 53.3254 9.39687 53.2066 9.0375C53.0879 8.67812 52.7785 8.41563 52.4035 8.35938L47.9129 7.69688L45.9035 3.5625Z" fill="#FACC15"/>
</g>
<path d="M72 24H54V0H72V24Z" stroke="#E5E7EB"/>
<g clip-path="url(#clip3_194_9925)">
<path d="M63.9035 3.5625C63.7379 3.21875 63.3879 3 63.0035 3C62.6191 3 62.2723 3.21875 62.1035 3.5625L60.0941 7.69688L55.6066 8.35938C55.2316 8.41563 54.9191 8.67812 54.8035 9.0375C54.6879 9.39687 54.7816 9.79375 55.0504 10.0594L58.3066 13.2812L57.5379 17.8344C57.4754 18.2094 57.6316 18.5906 57.941 18.8125C58.2504 19.0344 58.6598 19.0625 58.9973 18.8844L63.0066 16.7437L67.016 18.8844C67.3535 19.0625 67.7629 19.0375 68.0723 18.8125C68.3816 18.5875 68.5379 18.2094 68.4754 17.8344L67.7035 13.2812L70.9598 10.0594C71.2285 9.79375 71.3254 9.39687 71.2066 9.0375C71.0879 8.67812 70.7785 8.41563 70.4035 8.35938L65.9129 7.69688L63.9035 3.5625Z" fill="#FACC15"/>
</g>
<path d="M90 24H72V0H90V24Z" stroke="#E5E7EB"/>
<g clip-path="url(#clip4_194_9925)">
<path d="M81.9035 3.5625C81.7379 3.21875 81.3879 3 81.0035 3C80.6191 3 80.2723 3.21875 80.1035 3.5625L78.0941 7.69688L73.6066 8.35938C73.2316 8.41563 72.9191 8.67812 72.8035 9.0375C72.6879 9.39687 72.7816 9.79375 73.0504 10.0594L76.3066 13.2812L75.5379 17.8344C75.4754 18.2094 75.6316 18.5906 75.941 18.8125C76.2504 19.0344 76.6598 19.0625 76.9973 18.8844L81.0066 16.7437L85.016 18.8844C85.3535 19.0625 85.7629 19.0375 86.0723 18.8125C86.3816 18.5875 86.5379 18.2094 86.4754 17.8344L85.7035 13.2812L88.9598 10.0594C89.2285 9.79375 89.3254 9.39687 89.2066 9.0375C89.0879 8.67812 88.7785 8.41563 88.4035 8.35938L83.9129 7.69688L81.9035 3.5625Z" fill="#FACC15"/>
</g>
<defs>
<clipPath id="clip0_194_9925">
<path d="M0 3H18V19H0V3Z" fill="white"/>
</clipPath>
<clipPath id="clip1_194_9925">
<path d="M18 3H36V19H18V3Z" fill="white"/>
</clipPath>
<clipPath id="clip2_194_9925">
<path d="M36 3H54V19H36V3Z" fill="white"/>
</clipPath>
<clipPath id="clip3_194_9925">
<path d="M54 3H72V19H54V3Z" fill="white"/>
</clipPath>
<clipPath id="clip4_194_9925">
<path d="M72 3H90V19H72V3Z" fill="white"/>
</clipPath>
</defs>
</svg>
