<svg width="9" height="14" viewBox="0 0 9 14" fill="none" xmlns="http://www.w3.org/2000/svg">
<g clip-path="url(#clip0_194_10285)">
<g clip-path="url(#clip1_194_10285)">
<path d="M4.3748 0C4.85878 0 5.2498 0.391016 5.2498 0.875V1.85117C5.29355 1.85664 5.33456 1.86211 5.37831 1.87031C5.38925 1.87305 5.39745 1.87305 5.40839 1.87578L6.72089 2.11641C7.19667 2.20391 7.51112 2.66055 7.42362 3.13359C7.33612 3.60664 6.87948 3.92383 6.40644 3.83633L5.10761 3.59844C4.25175 3.47266 3.49706 3.55742 2.96659 3.76797C2.43612 3.97852 2.22284 4.26836 2.17362 4.53633C2.11894 4.82891 2.15995 4.99297 2.20644 5.09414C2.25565 5.20078 2.35683 5.32109 2.55644 5.45508C3.00214 5.74766 3.68573 5.93906 4.57167 6.17422L4.65097 6.19609C5.433 6.40391 6.39003 6.65547 7.10097 7.12031C7.48925 7.37461 7.85565 7.71914 8.08261 8.20039C8.31503 8.68984 8.36425 9.23672 8.25761 9.81914C8.06894 10.8582 7.35253 11.5527 6.46386 11.9164C6.08925 12.0695 5.68183 12.168 5.2498 12.2172V13.125C5.2498 13.609 4.85878 14 4.3748 14C3.89081 14 3.4998 13.609 3.4998 13.125V12.1707C3.48886 12.168 3.47519 12.168 3.46425 12.1652H3.45878C2.79159 12.0613 1.69511 11.7742 0.956827 11.4461C0.516592 11.2492 0.316983 10.7324 0.513858 10.2922C0.710733 9.85195 1.22753 9.65234 1.66776 9.84922C2.23925 10.1035 3.17987 10.3551 3.72401 10.4398C4.59628 10.5684 5.31542 10.4945 5.80214 10.2949C6.26425 10.1062 6.4748 9.83281 6.53495 9.50469C6.58691 9.21484 6.54589 9.04805 6.4994 8.94688C6.44745 8.8375 6.34628 8.71719 6.14394 8.5832C5.6955 8.29062 5.00917 8.09922 4.1205 7.86406L4.04394 7.84492C3.26464 7.63711 2.30761 7.38281 1.59667 6.91797C1.20839 6.66367 0.844717 6.31641 0.617764 5.83516C0.388077 5.3457 0.341592 4.79883 0.450967 4.21641C0.647842 3.17188 1.42987 2.49375 2.31855 2.14102C2.68222 1.99609 3.08144 1.89766 3.4998 1.84023V0.875C3.4998 0.391016 3.89081 0 4.3748 0Z" fill="#4B5563"/>
</g>
</g>
<defs>
<clipPath id="clip0_194_10285">
<rect width="8.75" height="14" fill="white"/>
</clipPath>
<clipPath id="clip1_194_10285">
<path d="M0 0H8.75V14H0V0Z" fill="white"/>
</clipPath>
</defs>
</svg>
