<svg width="13" height="13" viewBox="0 0 13 13" fill="none" xmlns="http://www.w3.org/2000/svg">
<g clip-path="url(#clip0_194_10280)">
<path d="M13.5 13.5H-0.5V-0.5H13.5V13.5Z" stroke="#E5E7EB"/>
<path d="M5.5 2C6.95869 2 8.35764 2.57946 9.38909 3.61091C10.4205 4.64236 11 6.04131 11 7.5C11 8.95869 10.4205 10.3576 9.38909 11.3891C8.35764 12.4205 6.95869 13 5.5 13C4.04131 13 2.64236 12.4205 1.61091 11.3891C0.579463 10.3576 0 8.95869 0 7.5C0 6.04131 0.579463 4.64236 1.61091 3.61091C2.64236 2.57946 4.04131 2 5.5 2ZM4.98438 4.57812V7.5C4.98438 7.67188 5.07031 7.83301 5.21426 7.92969L7.27676 9.30469C7.51309 9.46367 7.8332 9.39922 7.99219 9.16074C8.15117 8.92227 8.08672 8.6043 7.84824 8.44531L6.01562 7.225V4.57812C6.01562 4.29238 5.78574 4.0625 5.5 4.0625C5.21426 4.0625 4.98438 4.29238 4.98438 4.57812Z" fill="#4B5563"/>
</g>
<defs>
<clipPath id="clip0_194_10280">
<rect width="13" height="13" fill="white"/>
</clipPath>
</defs>
</svg>
