<svg width="18" height="20" viewBox="0 0 18 20" fill="none" xmlns="http://www.w3.org/2000/svg">
<path d="M17.5 20H0V0H17.5V20Z" stroke="#E5E7EB"/>
<g clip-path="url(#clip0_194_10020)">
<path d="M3.9375 2.75C4.51766 2.75 5.07406 2.98047 5.4843 3.3907C5.89453 3.80094 6.125 4.35734 6.125 4.9375C6.125 5.51766 5.89453 6.07406 5.4843 6.4843C5.07406 6.89453 4.51766 7.125 3.9375 7.125C3.35734 7.125 2.80094 6.89453 2.3907 6.4843C1.98047 6.07406 1.75 5.51766 1.75 4.9375C1.75 4.35734 1.98047 3.80094 2.3907 3.3907C2.80094 2.98047 3.35734 2.75 3.9375 2.75ZM14 2.75C14.5802 2.75 15.1366 2.98047 15.5468 3.3907C15.957 3.80094 16.1875 4.35734 16.1875 4.9375C16.1875 5.51766 15.957 6.07406 15.5468 6.4843C15.1366 6.89453 14.5802 7.125 14 7.125C13.4198 7.125 12.8634 6.89453 12.4532 6.4843C12.043 6.07406 11.8125 5.51766 11.8125 4.9375C11.8125 4.35734 12.043 3.80094 12.4532 3.3907C12.8634 2.98047 13.4198 2.75 14 2.75ZM0 10.9176C0 9.30703 1.30703 8 2.91758 8H4.08516C4.51992 8 4.93281 8.0957 5.30469 8.26523C5.26914 8.46211 5.25273 8.66719 5.25273 8.875C5.25273 9.91953 5.71211 10.8574 6.43672 11.5C6.43125 11.5 6.42578 11.5 6.41758 11.5H0.582422C0.2625 11.5 0 11.2375 0 10.9176ZM11.0824 11.5C11.077 11.5 11.0715 11.5 11.0633 11.5C11.7906 10.8574 12.2473 9.91953 12.2473 8.875C12.2473 8.66719 12.2281 8.46484 12.1953 8.26523C12.5672 8.09297 12.9801 8 13.4148 8H14.5824C16.193 8 17.5 9.30703 17.5 10.9176C17.5 11.2402 17.2375 11.5 16.9176 11.5H11.0824ZM6.125 8.875C6.125 8.17881 6.40156 7.51113 6.89384 7.01884C7.38613 6.52656 8.05381 6.25 8.75 6.25C9.44619 6.25 10.1139 6.52656 10.6062 7.01884C11.0984 7.51113 11.375 8.17881 11.375 8.875C11.375 9.57119 11.0984 10.2389 10.6062 10.7312C10.1139 11.2234 9.44619 11.5 8.75 11.5C8.05381 11.5 7.38613 11.2234 6.89384 10.7312C6.40156 10.2389 6.125 9.57119 6.125 8.875ZM3.5 16.0199C3.5 14.0074 5.13242 12.375 7.14492 12.375H10.3551C12.3676 12.375 14 14.0074 14 16.0199C14 16.4219 13.6746 16.75 13.2699 16.75H4.23008C3.82812 16.75 3.5 16.4246 3.5 16.0199Z" fill="#6B7280"/>
</g>
<defs>
<clipPath id="clip0_194_10020">
<path d="M0 2.75H17.5V16.75H0V2.75Z" fill="white"/>
</clipPath>
</defs>
</svg>
