<svg width="14" height="20" viewBox="0 0 14 20" fill="none" xmlns="http://www.w3.org/2000/svg">
<path d="M14 20H0V0H14V20Z" stroke="#E5E7EB"/>
<path d="M14 16.75H0V2.75H14V16.75Z" stroke="#E5E7EB"/>
<path d="M1.3125 4.5C0.587891 4.5 0 5.08789 0 5.8125C0 6.22539 0.194141 6.61367 0.525 6.8625L6.475 11.325C6.78672 11.5574 7.21328 11.5574 7.525 11.325L13.475 6.8625C13.8059 6.61367 14 6.22539 14 5.8125C14 5.08789 13.4121 4.5 12.6875 4.5H1.3125ZM0 7.5625V13.25C0 14.2152 0.784766 15 1.75 15H12.25C13.2152 15 14 14.2152 14 13.25V7.5625L8.05 12.025C7.42656 12.4926 6.57344 12.4926 5.95 12.025L0 7.5625Z" fill="#6B7280"/>
</svg>
