<svg width="11" height="20" viewBox="0 0 11 20" fill="none" xmlns="http://www.w3.org/2000/svg">
<path d="M10.5 20H0V0H10.5V20Z" stroke="#E5E7EB"/>
<g clip-path="url(#clip0_194_9740)">
<path d="M5.89805 16.4C7.30078 14.6445 10.5 10.3898 10.5 8C10.5 5.10156 8.14844 2.75 5.25 2.75C2.35156 2.75 0 5.10156 0 8C0 10.3898 3.19922 14.6445 4.60195 16.4C4.93828 16.8184 5.56172 16.8184 5.89805 16.4ZM5.25 6.25C5.71413 6.25 6.15925 6.43437 6.48744 6.76256C6.81563 7.09075 7 7.53587 7 8C7 8.46413 6.81563 8.90925 6.48744 9.23744C6.15925 9.56563 5.71413 9.75 5.25 9.75C4.78587 9.75 4.34075 9.56563 4.01256 9.23744C3.68437 8.90925 3.5 8.46413 3.5 8C3.5 7.53587 3.68437 7.09075 4.01256 6.76256C4.34075 6.43437 4.78587 6.25 5.25 6.25Z" fill="#6B7280"/>
</g>
<defs>
<clipPath id="clip0_194_9740">
<path d="M0 2.75H10.5V16.75H0V2.75Z" fill="white"/>
</clipPath>
</defs>
</svg>
