<svg width="13" height="20" viewBox="0 0 13 20" fill="none" xmlns="http://www.w3.org/2000/svg">
<path d="M12.25 20H0V0H12.25V20Z" stroke="#E5E7EB"/>
<g clip-path="url(#clip0_194_10043)">
<path d="M6.125 9.75C5.19674 9.75 4.3065 9.38125 3.65013 8.72487C2.99375 8.0685 2.625 7.17826 2.625 6.25C2.625 5.32174 2.99375 4.4315 3.65013 3.77513C4.3065 3.11875 5.19674 2.75 6.125 2.75C7.05326 2.75 7.9435 3.11875 8.59987 3.77513C9.25625 4.4315 9.625 5.32174 9.625 6.25C9.625 7.17826 9.25625 8.0685 8.59987 8.72487C7.9435 9.38125 7.05326 9.75 6.125 9.75ZM5.71758 12.5719L5.20898 11.7242C5.03398 11.4316 5.24453 11.0625 5.58359 11.0625H6.125H6.66367C7.00273 11.0625 7.21328 11.4344 7.03828 11.7242L6.52969 12.5719L7.44297 15.9598L8.42734 11.943C8.48203 11.7215 8.69531 11.5766 8.9168 11.634C10.8336 12.1152 12.25 13.8488 12.25 15.9105C12.25 16.3754 11.8727 16.75 11.4105 16.75H7.80664C7.74922 16.75 7.69727 16.7391 7.64805 16.7199L7.65625 16.75H4.59375L4.60195 16.7199C4.55273 16.7391 4.49805 16.75 4.44336 16.75H0.839453C0.377344 16.75 0 16.3727 0 15.9105C0 13.8461 1.41914 12.1125 3.3332 11.634C3.55469 11.5793 3.76797 11.7242 3.82266 11.943L4.80703 15.9598L5.72031 12.5719H5.71758Z" fill="#9CA3AF"/>
</g>
<defs>
<clipPath id="clip0_194_10043">
<path d="M0 2.75H12.25V16.75H0V2.75Z" fill="white"/>
</clipPath>
</defs>
</svg>
