<svg width="13" height="20" viewBox="0 0 13 20" fill="none" xmlns="http://www.w3.org/2000/svg">
<path d="M12.25 20H0V0H12.25V20Z" stroke="#E5E7EB"/>
<g clip-path="url(#clip0_194_9820)">
<path d="M6.125 9.75C7.05326 9.75 7.9435 9.38125 8.59987 8.72487C9.25625 8.0685 9.625 7.17826 9.625 6.25C9.625 5.32174 9.25625 4.4315 8.59987 3.77513C7.9435 3.11875 7.05326 2.75 6.125 2.75C5.19674 2.75 4.3065 3.11875 3.65013 3.77513C2.99375 4.4315 2.625 5.32174 2.625 6.25C2.625 7.17826 2.99375 8.0685 3.65013 8.72487C4.3065 9.38125 5.19674 9.75 6.125 9.75ZM4.87539 11.0625C2.18203 11.0625 0 13.2445 0 15.9379C0 16.3863 0.363672 16.75 0.812109 16.75H11.4379C11.8863 16.75 12.25 16.3863 12.25 15.9379C12.25 13.2445 10.068 11.0625 7.37461 11.0625H4.87539Z" fill="#6B7280"/>
</g>
<defs>
<clipPath id="clip0_194_9820">
<path d="M0 2.75H12.25V16.75H0V2.75Z" fill="white"/>
</clipPath>
</defs>
</svg>
