<svg width="18" height="20" viewBox="0 0 18 20" fill="none" xmlns="http://www.w3.org/2000/svg">
<path d="M17.5 20H0V0H17.5V20Z" stroke="#E5E7EB"/>
<g clip-path="url(#clip0_194_10077)">
<path d="M8.84297 5.07969L6.19609 7.22344C5.75586 7.57891 5.67109 8.21875 6.00469 8.67539C6.35742 9.16211 7.04375 9.25781 7.5168 8.88867L10.232 6.77773C10.4234 6.63008 10.6969 6.66289 10.8473 6.8543C10.9977 7.0457 10.9621 7.31914 10.7707 7.46953L10.1992 7.9125L14 11.4125V6.25H13.9809L13.8742 6.18164L11.8891 4.91016C11.4707 4.64219 10.9812 4.5 10.4836 4.5C9.8875 4.5 9.30781 4.70508 8.84297 5.07969ZM9.46641 8.48125L8.05273 9.58047C7.19141 10.2531 5.9418 10.0781 5.29648 9.19219C4.68945 8.3582 4.84258 7.19336 5.64375 6.54531L7.91875 4.70508C7.60156 4.57109 7.25977 4.50273 6.9125 4.50273C6.39844 4.5 5.89805 4.65313 5.46875 4.9375L3.5 6.25V12.375H4.27109L6.77031 14.6555C7.30625 15.1449 8.13477 15.1066 8.62422 14.5707C8.77461 14.4039 8.87578 14.2098 8.92773 14.0074L9.39258 14.434C9.92578 14.9234 10.757 14.8879 11.2465 14.3547C11.3695 14.2207 11.4598 14.0648 11.5172 13.9035C12.0477 14.259 12.7695 14.1852 13.2152 13.6984C13.7047 13.1652 13.6691 12.334 13.1359 11.8445L9.46641 8.48125ZM0.4375 6.25C0.196875 6.25 0 6.44687 0 6.6875V12.375C0 12.859 0.391016 13.25 0.875 13.25H1.75C2.23398 13.25 2.625 12.859 2.625 12.375V6.25H0.4375ZM1.3125 11.5C1.42853 11.5 1.53981 11.5461 1.62186 11.6281C1.70391 11.7102 1.75 11.8215 1.75 11.9375C1.75 12.0535 1.70391 12.1648 1.62186 12.2469C1.53981 12.3289 1.42853 12.375 1.3125 12.375C1.19647 12.375 1.08519 12.3289 1.00314 12.2469C0.921094 12.1648 0.875 12.0535 0.875 11.9375C0.875 11.8215 0.921094 11.7102 1.00314 11.6281C1.08519 11.5461 1.19647 11.5 1.3125 11.5ZM14.875 6.25V12.375C14.875 12.859 15.266 13.25 15.75 13.25H16.625C17.109 13.25 17.5 12.859 17.5 12.375V6.6875C17.5 6.44687 17.3031 6.25 17.0625 6.25H14.875ZM15.75 11.9375C15.75 11.8215 15.7961 11.7102 15.8781 11.6281C15.9602 11.5461 16.0715 11.5 16.1875 11.5C16.3035 11.5 16.4148 11.5461 16.4969 11.6281C16.5789 11.7102 16.625 11.8215 16.625 11.9375C16.625 12.0535 16.5789 12.1648 16.4969 12.2469C16.4148 12.3289 16.3035 12.375 16.1875 12.375C16.0715 12.375 15.9602 12.3289 15.8781 12.2469C15.7961 12.1648 15.75 12.0535 15.75 11.9375Z" fill="#9CA3AF"/>
</g>
<defs>
<clipPath id="clip0_194_10077">
<path d="M0 2.75H17.5V16.75H0V2.75Z" fill="white"/>
</clipPath>
</defs>
</svg>
