<svg width="13" height="20" viewBox="0 0 13 20" fill="none" xmlns="http://www.w3.org/2000/svg">
<path d="M12.25 20H0V0H12.25V20Z" stroke="#E5E7EB"/>
<g clip-path="url(#clip0_194_9826)">
<path d="M9.95898 5.04142C9.2918 4.37423 8.20898 4.37423 7.5418 5.04142L2.51055 10.0727C1.35938 11.2238 1.35938 13.0887 2.51055 14.2399C3.66172 15.391 5.52656 15.391 6.67773 14.2399L10.834 10.0836C11.132 9.78556 11.6187 9.78556 11.9168 10.0836C12.2148 10.3817 12.2148 10.8684 11.9168 11.1664L7.76055 15.3227C6.01055 17.0727 3.17773 17.0727 1.42773 15.3227C-0.322266 13.5727 -0.322266 10.7399 1.42773 8.98986L6.45898 3.95861C7.725 2.69259 9.77578 2.69259 11.0418 3.95861C12.3078 5.22462 12.3078 7.2754 11.0418 8.54142L6.2293 13.3539C5.44727 14.1359 4.17852 14.1359 3.39648 13.3539C2.61445 12.5719 2.61445 11.3031 3.39648 10.5211L7.33398 6.58361C7.63203 6.28556 8.11875 6.28556 8.4168 6.58361C8.71484 6.88165 8.71484 7.36837 8.4168 7.66642L4.4793 11.6039C4.29609 11.7871 4.29609 12.0879 4.4793 12.2711C4.6625 12.4543 4.96328 12.4543 5.14648 12.2711L9.95898 7.45861C10.6262 6.79142 10.6262 5.70861 9.95898 5.04142Z" fill="#6B7280"/>
</g>
<defs>
<clipPath id="clip0_194_9826">
<path d="M0 2.75H12.25V16.75H0V2.75Z" fill="white"/>
</clipPath>
</defs>
</svg>
