<svg width="14" height="20" viewBox="0 0 14 20" fill="none" xmlns="http://www.w3.org/2000/svg">
<path d="M14 20H0V0H14V20Z" stroke="#E5E7EB"/>
<g clip-path="url(#clip0_194_9879)">
<path d="M8.56953 3.6496C9.28047 3.79179 9.74258 4.48359 9.60039 5.19453L9.5375 5.50625C9.39258 6.23632 9.12461 6.93085 8.75 7.56249H12.6875C13.4121 7.56249 14 8.15039 14 8.87499C14 9.38085 13.7129 9.82109 13.2918 10.0398C13.5898 10.2805 13.7812 10.6496 13.7812 11.0625C13.7812 11.7023 13.3219 12.2355 12.7176 12.3504C12.8379 12.55 12.9062 12.7824 12.9062 13.0312C12.9062 13.6137 12.5262 14.1086 12.0012 14.2781C12.0203 14.3684 12.0312 14.4641 12.0312 14.5625C12.0312 15.2871 11.4434 15.875 10.7188 15.875H8.05273C7.5332 15.875 7.02734 15.7219 6.59531 15.4348L5.54258 14.732C4.8125 14.2453 4.375 13.425 4.375 12.5473V11.5V10.1875V9.50664C4.375 8.7082 4.73867 7.95624 5.35938 7.45585L5.56172 7.29453C6.28633 6.71484 6.78125 5.9 6.96172 4.99218L7.02461 4.68046C7.1668 3.96953 7.85859 3.50742 8.56953 3.6496ZM0.875 7.99999H2.625C3.10898 7.99999 3.5 8.39101 3.5 8.87499V15C3.5 15.484 3.10898 15.875 2.625 15.875H0.875C0.391016 15.875 0 15.484 0 15V8.87499C0 8.39101 0.391016 7.99999 0.875 7.99999Z" fill="#16A34A"/>
</g>
<defs>
<clipPath id="clip0_194_9879">
<path d="M0 2.75H14V16.75H0V2.75Z" fill="white"/>
</clipPath>
</defs>
</svg>
