<svg width="16" height="24" viewBox="0 0 16 24" fill="none" xmlns="http://www.w3.org/2000/svg">
<path d="M16 24H0V0H16V24Z" stroke="#E5E7EB"/>
<g clip-path="url(#clip0_194_10119)">
<path d="M13 10.5C13 11.9344 12.5344 13.2594 11.75 14.3344L15.7063 18.2937C16.0969 18.6844 16.0969 19.3188 15.7063 19.7094C15.3156 20.1 14.6812 20.1 14.2906 19.7094L10.3344 15.75C9.25938 16.5375 7.93437 17 6.5 17C2.90937 17 0 14.0906 0 10.5C0 6.90937 2.90937 4 6.5 4C10.0906 4 13 6.90937 13 10.5ZM6.5 15C7.09095 15 7.67611 14.8836 8.22208 14.6575C8.76804 14.4313 9.26412 14.0998 9.68198 13.682C10.0998 13.2641 10.4313 12.768 10.6575 12.2221C10.8836 11.6761 11 11.0909 11 10.5C11 9.90905 10.8836 9.32389 10.6575 8.77792C10.4313 8.23196 10.0998 7.73588 9.68198 7.31802C9.26412 6.90016 8.76804 6.56869 8.22208 6.34254C7.67611 6.1164 7.09095 6 6.5 6C5.90905 6 5.32389 6.1164 4.77792 6.34254C4.23196 6.56869 3.73588 6.90016 3.31802 7.31802C2.90016 7.73588 2.56869 8.23196 2.34254 8.77792C2.1164 9.32389 2 9.90905 2 10.5C2 11.0909 2.1164 11.6761 2.34254 12.2221C2.56869 12.768 2.90016 13.2641 3.31802 13.682C3.73588 14.0998 4.23196 14.4313 4.77792 14.6575C5.32389 14.8836 5.90905 15 6.5 15Z" fill="#9CA3AF"/>
</g>
<defs>
<clipPath id="clip0_194_10119">
<path d="M0 4H16V20H0V4Z" fill="white"/>
</clipPath>
</defs>
</svg>
