<svg width="14" height="20" viewBox="0 0 14 20" fill="none" xmlns="http://www.w3.org/2000/svg">
<path d="M14 20H0V0H14V20Z" stroke="#E5E7EB"/>
<g clip-path="url(#clip0_194_10060)">
<path d="M4.50898 3.42266C4.29844 2.91407 3.74336 2.64337 3.21289 2.78829L0.806641 3.44454C0.330859 3.57579 0 4.00782 0 4.50001C0 11.2648 5.48516 16.75 12.25 16.75C12.7422 16.75 13.1742 16.4191 13.3055 15.9434L13.9617 13.5371C14.1066 13.0066 13.8359 12.4516 13.3273 12.241L10.7023 11.1473C10.2566 10.9613 9.73984 11.0899 9.43633 11.4645L8.33164 12.8125C6.40664 11.902 4.84805 10.3434 3.9375 8.41837L5.28555 7.31641C5.66016 7.01016 5.78867 6.4961 5.60273 6.0504L4.50898 3.4254V3.42266Z" fill="#9CA3AF"/>
</g>
<defs>
<clipPath id="clip0_194_10060">
<path d="M0 2.75H14V16.75H0V2.75Z" fill="white"/>
</clipPath>
</defs>
</svg>
