<svg width="16" height="20" viewBox="0 0 16 20" fill="none" xmlns="http://www.w3.org/2000/svg">
<path d="M15.75 20H0V0H15.75V20Z" stroke="#E5E7EB"/>
<g clip-path="url(#clip0_194_9952)">
<path d="M0 6.25C0 5.28477 0.784766 4.5 1.75 4.5H8.75C9.71523 4.5 10.5 5.28477 10.5 6.25V13.25C10.5 14.2152 9.71523 15 8.75 15H1.75C0.784766 15 0 14.2152 0 13.25V6.25ZM15.2879 5.47891C15.5723 5.63203 15.75 5.92734 15.75 6.25V13.25C15.75 13.5727 15.5723 13.868 15.2879 14.0211C15.0035 14.1742 14.659 14.1578 14.3883 13.9773L11.7633 12.2273L11.375 11.9676V11.5V8V7.53242L11.7633 7.27266L14.3883 5.52266C14.6562 5.34492 15.0008 5.32578 15.2879 5.47891Z" fill="#6B7280"/>
</g>
<defs>
<clipPath id="clip0_194_9952">
<path d="M0 2.75H15.75V16.75H0V2.75Z" fill="white"/>
</clipPath>
</defs>
</svg>
