<svg width="16" height="21" viewBox="0 0 16 21" fill="none" xmlns="http://www.w3.org/2000/svg">
<path d="M15.75 21H0V0H15.75V21Z" stroke="#E5E7EB"/>
<g clip-path="url(#clip0_194_10305)">
<path d="M0.330566 9.45547C-0.108887 9.89492 -0.108887 10.6086 0.330566 11.048L5.95557 16.673C6.39502 17.1125 7.10869 17.1125 7.54814 16.673C7.9876 16.2336 7.9876 15.5199 7.54814 15.0805L3.83916 11.375H14.6251C15.2474 11.375 15.7501 10.8723 15.7501 10.25C15.7501 9.62773 15.2474 9.125 14.6251 9.125H3.84268L7.54463 5.41953C7.98408 4.98007 7.98408 4.2664 7.54463 3.82695C7.10518 3.3875 6.3915 3.3875 5.95205 3.82695L0.327051 9.45195L0.330566 9.45547Z" fill="#6B7280"/>
</g>
<defs>
<clipPath id="clip0_194_10305">
<path d="M0 1.25H15.75V19.25H0V1.25Z" fill="white"/>
</clipPath>
</defs>
</svg>
