<svg width="11" height="20" viewBox="0 0 11 20" fill="none" xmlns="http://www.w3.org/2000/svg">
<path d="M10.5 20H0V0H10.5V20Z" stroke="#E5E7EB"/>
<g clip-path="url(#clip0_194_9994)">
<path d="M4.75278 2.90044C5.05356 2.70083 5.44731 2.70083 5.74809 2.90044L6.23481 3.22036C6.39888 3.327 6.59028 3.37896 6.78442 3.36802L7.36684 3.33247C7.72778 3.3106 8.06684 3.50747 8.22817 3.83013L8.49067 4.35239C8.57817 4.52739 8.72036 4.66685 8.89263 4.75435L9.42036 5.01958C9.74302 5.18091 9.93989 5.51997 9.91802 5.88091L9.88247 6.46333C9.87153 6.65747 9.92348 6.85161 10.0301 7.01294L10.3528 7.49966C10.5524 7.80044 10.5524 8.19419 10.3528 8.49497L10.0301 8.98442C9.92348 9.14849 9.87153 9.33989 9.88247 9.53403L9.91802 10.1165C9.93989 10.4774 9.74302 10.8165 9.42036 10.9778L8.89809 11.2403C8.72309 11.3278 8.58364 11.47 8.49614 11.6422L8.23091 12.17C8.06958 12.4926 7.73052 12.6895 7.36958 12.6676L6.78716 12.6321C6.59302 12.6211 6.39888 12.6731 6.23755 12.7797L5.75083 13.1024C5.45005 13.302 5.0563 13.302 4.75552 13.1024L4.26606 12.7797C4.102 12.6731 3.91059 12.6211 3.71645 12.6321L3.13403 12.6676C2.77309 12.6895 2.43403 12.4926 2.2727 12.17L2.0102 11.6477C1.9227 11.4727 1.78052 11.3333 1.60825 11.2458L1.08052 10.9805C0.75786 10.8192 0.560985 10.4801 0.58286 10.1192L0.618407 9.53677C0.629344 9.34263 0.577391 9.14849 0.47075 8.98716L0.150828 8.4977C-0.048781 8.19692 -0.048781 7.80317 0.150828 7.50239L0.47075 7.01567C0.577391 6.85161 0.629344 6.66021 0.618407 6.46606L0.58286 5.88364C0.560985 5.52271 0.75786 5.18364 1.08052 5.02231L1.60278 4.75981C1.77778 4.66958 1.91997 4.52739 2.00747 4.35239L2.26997 3.83013C2.4313 3.50747 2.77036 3.3106 3.1313 3.33247L3.71372 3.36802C3.90786 3.37896 4.102 3.327 4.26333 3.22036L4.75278 2.90044ZM7.43794 8.00005C7.43794 7.41989 7.20747 6.86349 6.79723 6.45325C6.387 6.04302 5.8306 5.81255 5.25044 5.81255C4.67028 5.81255 4.11388 6.04302 3.70364 6.45325C3.29341 6.86349 3.06294 7.41989 3.06294 8.00005C3.06294 8.58021 3.29341 9.13661 3.70364 9.54684C4.11388 9.95708 4.67028 10.1875 5.25044 10.1875C5.8306 10.1875 6.387 9.95708 6.79723 9.54684C7.20747 9.13661 7.43794 8.58021 7.43794 8.00005ZM0.0359846 14.8305L1.2145 12.0278C1.21997 12.0305 1.2227 12.0333 1.22544 12.0387L1.48794 12.561C1.80786 13.1954 2.47231 13.5809 3.18325 13.5399L3.76567 13.5043C3.77114 13.5043 3.77934 13.5043 3.78481 13.5098L4.27153 13.8325C4.41098 13.9227 4.55864 13.9938 4.71177 14.043L3.68364 16.4848C3.62075 16.6352 3.4813 16.7364 3.31997 16.75C3.15864 16.7637 3.00278 16.6899 2.91528 16.5532L2.03481 15.2051L0.500828 15.4321C0.344969 15.454 0.18911 15.3911 0.0906721 15.268C-0.00776535 15.145 -0.026906 14.9754 0.0332503 14.8305H0.0359846ZM6.81723 16.4821L5.78911 14.043C5.94223 13.9938 6.08989 13.9254 6.22934 13.8325L6.71606 13.5098C6.72153 13.5071 6.727 13.5043 6.7352 13.5043L7.31763 13.5399C8.02856 13.5809 8.69302 13.1954 9.01294 12.561L9.27544 12.0387C9.27817 12.0333 9.28091 12.0305 9.28638 12.0278L10.4676 14.8305C10.5278 14.9754 10.5059 15.1422 10.4102 15.268C10.3145 15.3938 10.1559 15.4567 10 15.4321L8.46606 15.2051L7.58559 16.5504C7.49809 16.6872 7.34224 16.761 7.18091 16.7473C7.01958 16.7336 6.88013 16.6297 6.81723 16.4821Z" fill="#16A34A"/>
</g>
<defs>
<clipPath id="clip0_194_9994">
<path d="M0 2.75H10.5V16.75H0V2.75Z" fill="white"/>
</clipPath>
</defs>
</svg>
