<svg width="14" height="20" viewBox="0 0 14 20" fill="none" xmlns="http://www.w3.org/2000/svg">
<path d="M14 20H0V0H14V20Z" stroke="#E5E7EB"/>
<g clip-path="url(#clip0_194_10026)">
<path d="M7 2.75C8.85652 2.75 10.637 3.4875 11.9497 4.80025C13.2625 6.11301 14 7.89348 14 9.75C14 11.6065 13.2625 13.387 11.9497 14.6997C10.637 16.0125 8.85652 16.75 7 16.75C5.14348 16.75 3.36301 16.0125 2.05025 14.6997C0.737498 13.387 0 11.6065 0 9.75C0 7.89348 0.737498 6.11301 2.05025 4.80025C3.36301 3.4875 5.14348 2.75 7 2.75ZM6.34375 6.03125V9.75C6.34375 9.96875 6.45312 10.1738 6.63633 10.2969L9.26133 12.0469C9.56211 12.2492 9.96953 12.1672 10.1719 11.8637C10.3742 11.5602 10.2922 11.1555 9.98867 10.9531L7.65625 9.4V6.03125C7.65625 5.66758 7.36367 5.375 7 5.375C6.63633 5.375 6.34375 5.66758 6.34375 6.03125Z" fill="#6B7280"/>
</g>
<defs>
<clipPath id="clip0_194_10026">
<path d="M0 2.75H14V16.75H0V2.75Z" fill="white"/>
</clipPath>
</defs>
</svg>
